<svg width="64" height="64" viewBox="0 0 64 64" fill="none" xmlns="http://www.w3.org/2000/svg">
<path d="M55.9561 15.2009V58.3201C55.9558 61.2654 53.5674 63.6531 50.6221 63.6531H13.333C10.3878 63.6529 8.00024 61.2653 8 58.3201V5.37769C8.00018 2.43242 10.3877 0.0448537 13.333 0.0446777H40.957L55.9561 15.2009Z" fill="url(#paint0_linear_10_202)"/>
<path d="M55.9561 15.2009V58.3201C55.9558 61.2654 53.5674 63.6531 50.6221 63.6531H13.333C10.3878 63.6529 8.00024 61.2653 8 58.3201V5.37769C8.00018 2.43242 10.3877 0.0448537 13.333 0.0446777H40.957L55.9561 15.2009Z" fill="url(#paint1_linear_10_202)"/>
<path d="M55.6694 14.8057C55.5783 14.8151 55.4858 14.8203 55.3921 14.8203H44.0005C42.5277 14.8203 41.3335 13.6261 41.3335 12.1533V0.316406L55.6694 14.8057Z" fill="url(#paint2_linear_10_202)"/>
<g filter="url(#filter0_dd_10_202)">
<path d="M17.6842 25.2219C16.7541 25.2219 16 25.976 16 26.9061C16 27.8363 16.7541 28.5903 17.6842 28.5903H44.6316C45.5618 28.5903 46.3158 27.8363 46.3158 26.9061C46.3158 25.976 45.5618 25.2219 44.6316 25.2219H17.6842ZM17.6842 31.9588C16.7541 31.9588 16 32.7128 16 33.643C16 34.5732 16.7541 35.3272 17.6842 35.3272H33.5075L33.621 35.0877C34.0391 34.2055 34.9278 33.643 35.9042 33.643H46.3158C46.3158 32.7128 45.5618 31.9588 44.6316 31.9588H17.6842ZM17.6842 38.6956H31.9117L30.316 42.064H17.6842C16.7541 42.064 16 41.31 16 40.3798C16 39.4496 16.7541 38.6956 17.6842 38.6956ZM17.6842 45.4324H28.7202L28.0357 46.8772C27.7302 47.522 27.7233 48.2048 27.936 48.8009H17.6842C16.7541 48.8009 16 48.0468 16 47.1166C16 46.1865 16.7541 45.4324 17.6842 45.4324ZM35.8924 35.3272H46.5351C47.1783 35.3272 47.5833 36.0234 47.268 36.587L44.1891 42.0901H46.7363C47.8151 42.0901 48.3959 43.3634 47.6921 44.1854L36.9034 56.7854C36.0253 57.8107 34.3828 56.8734 34.8084 55.5897L37.042 48.8529H30.3156C29.6982 48.8529 29.2914 48.2065 29.5557 47.6457L35.1325 35.8105C35.2716 35.5155 35.5675 35.3272 35.8924 35.3272Z" fill="url(#paint3_linear_10_202)"/>
</g>
<defs>
<filter id="filter0_dd_10_202" x="10.6667" y="21.2219" width="42.6667" height="42.6667" filterUnits="userSpaceOnUse" color-interpolation-filters="sRGB">
<feFlood flood-opacity="0" result="BackgroundImageFix"/>
<feColorMatrix in="SourceAlpha" type="matrix" values="0 0 0 0 0 0 0 0 0 0 0 0 0 0 0 0 0 0 127 0" result="hardAlpha"/>
<feOffset dy="1.33333"/>
<feGaussianBlur stdDeviation="2.66667"/>
<feColorMatrix type="matrix" values="0 0 0 0 0 0 0 0 0 0 0 0 0 0 0 0 0 0 0.25 0"/>
<feBlend mode="normal" in2="BackgroundImageFix" result="effect1_dropShadow_10_202"/>
<feColorMatrix in="SourceAlpha" type="matrix" values="0 0 0 0 0 0 0 0 0 0 0 0 0 0 0 0 0 0 127 0" result="hardAlpha"/>
<feOffset dy="1.33333"/>
<feGaussianBlur stdDeviation="2.66667"/>
<feColorMatrix type="matrix" values="0 0 0 0 0 0 0 0 0 0 0 0 0 0 0 0 0 0 0.25 0"/>
<feBlend mode="normal" in2="effect1_dropShadow_10_202" result="effect2_dropShadow_10_202"/>
<feBlend mode="normal" in="SourceGraphic" in2="effect2_dropShadow_10_202" result="shape"/>
</filter>
<linearGradient id="paint0_linear_10_202" x1="14.7438" y1="-2.98429" x2="56.5828" y2="63.257" gradientUnits="userSpaceOnUse">
<stop stop-color="#4C4C4C"/>
<stop offset="1" stop-color="#353535"/>
</linearGradient>
<linearGradient id="paint1_linear_10_202" x1="14.7438" y1="-2.98429" x2="56.5828" y2="63.257" gradientUnits="userSpaceOnUse">
<stop stop-color="#4C4C4C"/>
<stop offset="1" stop-color="#353535"/>
</linearGradient>
<linearGradient id="paint2_linear_10_202" x1="39.2514" y1="-2.60984" x2="50.4257" y2="16.7931" gradientUnits="userSpaceOnUse">
<stop stop-color="#666666"/>
<stop offset="1" stop-color="#666666"/>
</linearGradient>
<linearGradient id="paint3_linear_10_202" x1="47.9999" y1="66.4527" x2="17.0008" y2="64.7485" gradientUnits="userSpaceOnUse">
<stop stop-color="#AEABAB"/>
<stop offset="1" stop-color="#E6E6E6"/>
</linearGradient>
</defs>
</svg>
